<?xml version="1.0"?>
<svg xmlns="http://www.w3.org/2000/svg" xmlns:xlink="http://www.w3.org/1999/xlink" xmlns:svgjs="http://svgjs.com/svgjs" version="1.1" width="512" height="512" x="0" y="0" viewBox="0 0 141.294 141.294" style="enable-background:new 0 0 512 512" xml:space="preserve" class=""><g transform="matrix(6.123233995736766e-17,-1,1,6.123233995736766e-17,0.0004940032958984375,141.29450035095215)">
<g xmlns="http://www.w3.org/2000/svg">
	<g>
		<path d="M46.285,7.309v126.675c0,4.037,3.271,7.31,7.309,7.31c4.036,0,7.308-3.271,7.308-7.31V7.309    C60.902,3.272,57.63,0,53.594,0C49.557,0.001,46.285,3.272,46.285,7.309z" fill="#bcbcbc" data-original="#000000" style="" class=""/>
		<path d="M87.7,141.294c4.036,0,7.31-3.271,7.31-7.31V7.309C95.009,3.272,91.737,0,87.7,0s-7.31,3.271-7.31,7.309v126.675    C80.39,138.021,83.662,141.294,87.7,141.294z" fill="#bcbcbc" data-original="#000000" style="" class=""/>
	</g>
</g>
<g xmlns="http://www.w3.org/2000/svg">
</g>
<g xmlns="http://www.w3.org/2000/svg">
</g>
<g xmlns="http://www.w3.org/2000/svg">
</g>
<g xmlns="http://www.w3.org/2000/svg">
</g>
<g xmlns="http://www.w3.org/2000/svg">
</g>
<g xmlns="http://www.w3.org/2000/svg">
</g>
<g xmlns="http://www.w3.org/2000/svg">
</g>
<g xmlns="http://www.w3.org/2000/svg">
</g>
<g xmlns="http://www.w3.org/2000/svg">
</g>
<g xmlns="http://www.w3.org/2000/svg">
</g>
<g xmlns="http://www.w3.org/2000/svg">
</g>
<g xmlns="http://www.w3.org/2000/svg">
</g>
<g xmlns="http://www.w3.org/2000/svg">
</g>
<g xmlns="http://www.w3.org/2000/svg">
</g>
<g xmlns="http://www.w3.org/2000/svg">
</g>
</g></svg>
