<?xml version="1.0"?>
<svg xmlns="http://www.w3.org/2000/svg" xmlns:xlink="http://www.w3.org/1999/xlink" xmlns:svgjs="http://svgjs.com/svgjs" version="1.1" width="512" height="512" x="0" y="0" viewBox="0 0 356.919 356.918" style="enable-background:new 0 0 512 512" xml:space="preserve"><g transform="matrix(6.123233995736766e-17,-1,1,6.123233995736766e-17,-0.000507354736328125,356.9184989929199)">
<g xmlns="http://www.w3.org/2000/svg">
	<g id="Layer_8">
		<path d="M301.201,7.721V349.19c0,4.269-3.457,7.729-7.715,7.729h-63.705c-4.268,0-7.727-3.46-7.727-7.729V7.721    c0-4.263,3.459-7.721,7.727-7.721h63.705C297.744,0,301.201,3.458,301.201,7.721z M127.142,0H63.438    c-4.266,0-7.721,3.458-7.721,7.721V349.19c0,4.269,3.455,7.729,7.721,7.729h63.703c4.265,0,7.723-3.46,7.723-7.729V7.721    C134.864,3.458,131.407,0,127.142,0z" fill="#bcbcbc" data-original="#000000" style=""/>
	</g>
</g>
<g xmlns="http://www.w3.org/2000/svg">
</g>
<g xmlns="http://www.w3.org/2000/svg">
</g>
<g xmlns="http://www.w3.org/2000/svg">
</g>
<g xmlns="http://www.w3.org/2000/svg">
</g>
<g xmlns="http://www.w3.org/2000/svg">
</g>
<g xmlns="http://www.w3.org/2000/svg">
</g>
<g xmlns="http://www.w3.org/2000/svg">
</g>
<g xmlns="http://www.w3.org/2000/svg">
</g>
<g xmlns="http://www.w3.org/2000/svg">
</g>
<g xmlns="http://www.w3.org/2000/svg">
</g>
<g xmlns="http://www.w3.org/2000/svg">
</g>
<g xmlns="http://www.w3.org/2000/svg">
</g>
<g xmlns="http://www.w3.org/2000/svg">
</g>
<g xmlns="http://www.w3.org/2000/svg">
</g>
<g xmlns="http://www.w3.org/2000/svg">
</g>
</g></svg>
